<svg width="224" height="156" viewBox="0 0 224 156" fill="none" xmlns="http://www.w3.org/2000/svg">
<path d="M154.508 111.047V115.595C152.074 112.265 148.295 110.215 143.298 110.215C134.587 110.215 127.349 117.517 127.349 127.061C127.349 136.541 134.587 143.908 143.298 143.908C148.295 143.908 152.074 141.858 154.508 138.463V143.075H161.426V111.047H154.508ZM144.387 137.31C138.622 137.31 134.267 133.018 134.267 127.061C134.267 121.104 138.622 116.812 144.387 116.812C150.152 116.812 154.508 121.104 154.508 127.061C154.508 133.018 150.152 137.31 144.387 137.31Z" fill="#4389EB"/>
<path d="M166.927 143.075H173.845V96.3149H166.927V143.075Z" fill="#4389EB"/>
<path d="M179.956 143.075H186.874V96.3149H179.956V143.075Z" fill="#4389EB"/>
<path d="M216.172 111.047L207.973 134.299L198.429 111.047H190.871L204.45 142.498L204.13 143.139C202.529 147.366 200.094 149.672 195.611 149.416V155.886C202.977 156.334 208.229 152.235 211.24 144.1L223.538 111.047H216.172Z" fill="#4389EB"/>
<path d="M27.1592 98.2366V115.595C24.7251 112.265 20.9459 110.215 15.9496 110.215C7.23819 110.215 7.62939e-06 117.517 7.62939e-06 127.061C7.62939e-06 136.541 7.23819 143.908 15.9496 143.908C20.9459 143.908 24.7251 141.858 27.1592 138.463V143.075H34.0771V98.2366H27.1592ZM17.0386 137.31C11.2736 137.31 6.91792 133.018 6.91792 127.061C6.91792 121.104 11.2736 116.812 17.0386 116.812C22.8035 116.812 27.1592 121.104 27.1592 127.061C27.1592 133.018 22.8035 137.31 17.0386 137.31Z" fill="#1B1E25"/>
<path d="M55.0155 143.908C64.4315 143.908 71.9259 136.541 71.9259 127.061C71.9259 117.517 64.4315 110.215 55.0155 110.215C45.6635 110.215 38.1051 117.517 38.1051 127.061C38.1051 136.541 45.6635 143.908 55.0155 143.908ZM55.0155 137.182C49.3787 137.182 45.023 132.89 45.023 127.061C45.023 121.232 49.3787 116.941 55.0155 116.941C60.6523 116.941 65.008 121.232 65.008 127.061C65.008 132.89 60.6523 137.182 55.0155 137.182Z" fill="#1B1E25"/>
<path d="M110.913 110.215C106.622 110.215 103.227 111.944 101.113 115.275C99.2553 112.072 96.1807 110.215 92.0171 110.215C88.0457 110.215 84.907 111.752 82.8573 114.891V111.048H75.9394V143.075H82.8573V125.14C82.8573 119.311 86.06 116.684 89.9674 116.684C93.7466 116.684 95.9885 119.182 95.9885 123.666V143.075H102.906V125.14C102.906 119.311 105.789 116.684 109.888 116.684C113.668 116.684 116.102 119.182 116.102 123.666V143.075H123.02V123.218C123.02 115.211 118.151 110.215 110.913 110.215Z" fill="#1B1E25"/>
<rect x="94.8664" y="51.9435" width="11.543" height="11.543" fill="#47D1FF"/>
<rect x="111.54" y="25.9717" width="7.69532" height="16.3526" fill="#47D1FF"/>
<path d="M71.7744 53.4796L100.511 28.7367L129.561 53.8385" stroke="#47D1FF" stroke-width="7.69532"/>
<path d="M118.034 73.7558L120.907 76.1939L118.033 73.7558C109.503 83.8118 101.079 90.9279 100.668 91.2732C100.245 90.918 91.8273 83.8047 83.302 73.7558C71.3678 59.6884 65.9299 47.8735 65.9299 38.5065C65.9299 19.3554 81.5167 3.76869 100.668 3.76869C119.819 3.76869 135.406 19.3554 135.406 38.5065C135.406 47.8737 129.968 59.6884 118.034 73.7558Z" stroke="#1D62CA" stroke-width="7.53738"/>
</svg>
