<svg width="60" height="75" viewBox="0 0 60 75" fill="none" xmlns="http://www.w3.org/2000/svg">
<path d="M28.8516 66.7289C28.8516 67.2811 29.2993 67.7289 29.8516 67.7289C30.4038 67.7289 30.8516 67.2811 30.8516 66.7289H28.8516ZM28.8516 51.4102L28.8516 66.7289H30.8516L30.8516 51.4102H28.8516Z" fill="#1D62CA"/>
<path d="M20.5683 10.4537C26.255 6.92795 33.4481 6.92795 39.1348 10.4537C43.2416 12.9999 46.7036 16.4619 49.2499 20.5688C52.7756 26.2554 52.7756 33.4486 49.2499 39.1352C46.7036 43.2421 43.2416 46.704 39.1348 49.2503C33.4481 52.776 26.255 52.776 20.5683 49.2503C16.4615 46.704 12.9995 43.2421 10.4533 39.1352C6.92753 33.4486 6.92752 26.2554 10.4532 20.5688C12.9995 16.4619 16.4615 12.9999 20.5683 10.4537Z" fill="#4389EB"/>
<path d="M26.9573 23.8041C28.7303 22.7049 30.9729 22.7049 32.7458 23.8041C34.0262 24.598 35.1056 25.6773 35.8994 26.9577C36.9987 28.7307 36.9987 30.9733 35.8994 32.7463C35.1056 34.0267 34.0262 35.106 32.7458 35.8999C30.9729 36.9991 28.7302 36.9991 26.9573 35.8999C25.6769 35.106 24.5975 34.0267 23.8037 32.7463C22.7045 30.9733 22.7044 28.7307 23.8037 26.9577C24.5975 25.6773 25.6769 24.598 26.9573 23.8041Z" fill="white"/>
<g opacity="0.25" filter="url(#filter0_f)">
<ellipse cx="29.9863" cy="67.4102" rx="6.5" ry="3.5" fill="#383E4D"/>
</g>
<defs>
<filter id="filter0_f" x="19.4863" y="59.9102" width="21" height="15" filterUnits="userSpaceOnUse" color-interpolation-filters="sRGB">
<feFlood flood-opacity="0" result="BackgroundImageFix"/>
<feBlend mode="normal" in="SourceGraphic" in2="BackgroundImageFix" result="shape"/>
<feGaussianBlur stdDeviation="2" result="effect1_foregroundBlur"/>
</filter>
</defs>
</svg>
