<svg width="40" height="40" viewBox="0 0 40 40" fill="none" xmlns="http://www.w3.org/2000/svg">
<path d="M31.3333 0H8.66667C3.8802 0 0 3.8802 0 8.66667V31.3333C0 36.1198 3.8802 40 8.66667 40H31.3333C36.1198 40 40 36.1198 40 31.3333V8.66667C40 3.8802 36.1198 0 31.3333 0Z" fill="url(#paint0_linear)"/>
<path d="M6.16406 24.5767V15.1467C6.16406 12.5467 7.57073 11.1267 10.1974 11.1267H21.7207C24.3341 11.1267 25.7541 12.5467 25.7541 15.1467V24.5767C25.7541 27.1767 24.3341 28.5967 21.7207 28.5967H10.1974C7.58406 28.5967 6.16406 27.1767 6.16406 24.5767ZM26.5341 17.0567L31.6007 12.9267C31.9538 12.5926 32.4124 12.3921 32.8974 12.36C33.5874 12.36 34.0541 12.84 34.0541 13.6934V26.36C34.0541 27.2234 33.5874 27.6934 32.8974 27.6934C32.4113 27.6658 31.9512 27.4648 31.6007 27.1267L26.5341 22.96V17.0567Z" fill="#FEFEFE"/>
<defs>
<linearGradient id="paint0_linear" x1="20" y1="0" x2="20" y2="40" gradientUnits="userSpaceOnUse">
<stop stop-color="#5BF776"/>
<stop offset="1" stop-color="#0DBC29"/>
</linearGradient>
</defs>
</svg>
