<svg width="40" height="40" viewBox="0 0 40 40" fill="none" xmlns="http://www.w3.org/2000/svg">
<path d="M20 40C31.0457 40 40 31.0457 40 20C40 8.95431 31.0457 0 20 0C8.95431 0 0 8.95431 0 20C0 31.0457 8.95431 40 20 40Z" fill="url(#paint0_linear)"/>
<path d="M7.44869 20.9784C9.78669 19.6906 12.3965 18.6158 14.835 17.5354C19.0302 15.7659 23.242 14.0271 27.4964 12.4083C28.3241 12.1325 29.8114 11.8628 29.9572 13.0894C29.8773 14.8257 29.5488 16.5519 29.3235 18.278C28.7516 22.074 28.0906 25.857 27.446 29.6405C27.2239 30.9008 25.6452 31.5532 24.635 30.7467C22.2073 29.1069 19.761 27.483 17.3643 25.8052C16.5793 25.0075 17.3073 23.8619 18.0084 23.2922C20.0079 21.3217 22.1284 19.6475 24.0234 17.5752C24.5346 16.3408 23.0242 17.3811 22.5261 17.6999C19.7887 19.5862 17.1184 21.5877 14.2324 23.2456C12.7582 24.057 11.0401 23.3636 9.56655 22.9108C8.2454 22.3637 6.30939 21.8126 7.44855 20.9786L7.44869 20.9784Z" fill="white"/>
<defs>
<linearGradient id="paint0_linear" x1="26.6683" y1="6.668" x2="16.6683" y2="30" gradientUnits="userSpaceOnUse">
<stop stop-color="#37AEE2"/>
<stop offset="1" stop-color="#1E96C8"/>
</linearGradient>
</defs>
</svg>
