<svg width="40" height="40" viewBox="0 0 40 40" fill="none" xmlns="http://www.w3.org/2000/svg">
<g clip-path="url(#clip0)">
<path d="M39.9985 29.8896C39.9985 30.1086 39.9918 30.5836 39.9786 30.9505C39.9464 31.8483 39.8753 33.0068 39.7677 33.5346C39.6059 34.3278 39.3617 35.0764 39.0434 35.6996C38.6667 36.4368 38.1862 37.0971 37.6153 37.667C37.0456 38.2357 36.3859 38.7143 35.6498 39.0895C35.0234 39.4087 34.2701 39.653 33.4723 39.814C32.9498 39.9195 31.8 39.9893 30.908 40.021C30.5407 40.0342 30.0656 40.0408 29.8474 40.0408L10.1511 40.0376C9.93207 40.0376 9.45715 40.0309 9.09023 40.0177C8.19246 39.9855 7.03402 39.9144 6.50617 39.8068C5.71297 39.645 4.96426 39.4009 4.34113 39.0825C3.60395 38.7058 2.94367 38.2253 2.37379 37.6544C1.80504 37.0847 1.32645 36.425 0.951328 35.689C0.632031 35.0625 0.387734 34.3092 0.22668 33.5115C0.121211 32.9889 0.0514063 31.8391 0.0196484 30.9471C0.00660156 30.5798 0 30.1048 0 29.8866L0.003125 10.1902C0.003125 9.97117 0.00980469 9.49621 0.0229688 9.1293C0.0551953 8.23152 0.126328 7.07309 0.233945 6.54527C0.395703 5.75207 0.639844 5.00336 0.958242 4.3802C1.33492 3.64305 1.81543 2.98273 2.38633 2.41285C2.95602 1.84414 3.6157 1.36551 4.35176 0.990351C4.9782 0.671133 5.7316 0.426836 6.5293 0.265781C7.05184 0.160273 8.20164 0.0904687 9.09367 0.05875C9.46094 0.0456641 9.93605 0.0390625 10.1542 0.0390625L29.8505 0.0422266C30.0696 0.0422266 30.5445 0.0489062 30.9114 0.0620703C31.8092 0.0942969 32.9676 0.16543 33.4955 0.273047C34.2887 0.434805 35.0374 0.678945 35.6605 0.997344C36.3977 1.37402 37.058 1.85453 37.6279 2.42543C38.1966 2.99512 38.6752 3.65477 39.0503 4.39086C39.3696 5.0173 39.6139 5.77066 39.775 6.56836C39.8804 7.09094 39.9502 8.2407 39.982 9.13277C39.9951 9.50004 40.0017 9.97512 40.0017 10.1933L39.9985 29.8896Z" fill="url(#paint0_linear)"/>
<path d="M30.5979 9.50178C27.8897 6.79135 24.2882 5.29791 20.4509 5.29639C12.5446 5.29639 6.10977 11.7287 6.1066 19.6351C6.10559 22.1624 6.76609 24.6294 8.02133 26.804L5.98633 34.2348L13.5904 32.2408C15.6856 33.3831 18.0444 33.9851 20.4452 33.9862H20.4511C28.3566 33.9862 34.792 27.553 34.7952 19.6465C34.7968 15.815 33.3061 12.2122 30.5979 9.50178ZM20.4511 31.5643H20.4462C18.3069 31.5635 16.2086 30.989 14.3781 29.903L13.9427 29.6447L9.43031 30.8281L10.6348 26.4299L10.3512 25.979C9.15777 24.0814 8.52746 21.888 8.5284 19.6361C8.53098 13.0646 13.8794 7.71826 20.4557 7.71826C23.6401 7.71947 26.6336 8.96088 28.8846 11.2137C31.1355 13.4664 32.3745 16.461 32.3733 19.6456C32.3707 26.2176 27.0224 31.5643 20.4511 31.5643ZM26.9907 22.6379C26.6323 22.4586 24.8702 21.5918 24.5416 21.4722C24.2131 21.3526 23.9742 21.2928 23.7352 21.6516C23.4963 22.0103 22.8095 22.8173 22.6003 23.0564C22.3912 23.2956 22.1822 23.3255 21.8238 23.1461C21.4654 22.9668 20.3105 22.5884 18.9415 21.3678C17.8761 20.4178 17.1567 19.2444 16.9477 18.8856C16.7386 18.5269 16.9254 18.333 17.1048 18.1544C17.2661 17.9938 17.4632 17.7359 17.6425 17.5267C17.8216 17.3175 17.8814 17.168 18.0009 16.9288C18.1203 16.6897 18.0606 16.4805 17.971 16.3011C17.8814 16.1218 17.1646 14.3582 16.8659 13.6408C16.575 12.9421 16.2795 13.0367 16.0595 13.0257C15.8506 13.0153 15.6114 13.0131 15.3725 13.0131C15.1336 13.0131 14.7453 13.1028 14.4168 13.4615C14.0883 13.8202 13.1624 14.687 13.1624 16.4506C13.1624 18.2141 14.4466 19.9179 14.6259 20.157C14.8051 20.3962 17.1532 24.0153 20.7486 25.5672C21.6037 25.9364 22.2713 26.1569 22.7918 26.322C23.6504 26.5946 24.4318 26.5562 25.0494 26.464C25.738 26.3611 27.1698 25.5972 27.4686 24.7603C27.7673 23.9233 27.7673 23.2059 27.6777 23.0565C27.588 22.907 27.3491 22.8173 26.9907 22.6379Z" fill="white"/>
</g>
<defs>
<linearGradient id="paint0_linear" x1="20.0008" y1="0.0390625" x2="20.0008" y2="40.0408" gradientUnits="userSpaceOnUse">
<stop stop-color="#61FD7D"/>
<stop offset="1" stop-color="#2BB826"/>
</linearGradient>
<clipPath id="clip0">
<rect width="40" height="40" fill="white"/>
</clipPath>
</defs>
</svg>
