<svg width="40" height="40" viewBox="0 0 40 40" fill="none" xmlns="http://www.w3.org/2000/svg">
<path d="M39.9883 0H0.0117188C0.00524666 0 0 0.00524666 0 0.0117188V39.9883C0 39.9948 0.00524666 40 0.0117188 40H39.9883C39.9948 40 40 39.9948 40 39.9883V0.0117188C40 0.00524666 39.9948 0 39.9883 0Z" fill="#2D8CFF"/>
<path d="M33.4375 27.8906C34.0625 28.0469 34.6094 27.7344 34.9219 27.2656C35.0781 27.0312 35.0781 26.6406 35.0781 25.7812V13.9844C35.0781 13.125 35.0781 12.8125 34.9219 12.5C34.6875 11.875 34.0625 11.6406 33.4375 11.875C31.7969 12.9688 28.2031 16.1719 28.125 17.5C28.0625 17.7344 28.0625 18.125 28.0625 18.6719V21.6406C28.0625 22.2656 28.0625 22.5 28.125 22.8125C28.2031 23.4375 28.4375 23.9844 28.75 24.2969C29.6875 25 32.8125 27.8125 33.5156 27.8125L33.4375 27.8906ZM5 14.6094C5 13.4375 5 12.8125 5.23438 12.5C5.39062 12.1875 5.85938 11.875 6.09375 11.6406C6.40625 11.4062 6.95312 11.4062 8.20312 11.4062H18.2812C21.25 11.4062 22.7344 11.4062 23.9062 12.0312C24.7656 12.6562 25.7031 13.2031 26.25 14.375C26.875 15.5469 26.875 17.0312 26.875 20V25.3125C26.875 26.4844 26.875 27.1094 26.6406 27.4219C26.4844 27.7344 26.0156 28.0469 25.7812 28.2812C25.4688 28.5156 24.9219 28.5156 23.6719 28.5156H13.5938C10.625 28.5156 9.14062 28.5156 7.96875 27.8906C7.10938 27.2656 6.17188 26.7188 5.625 25.5469C5 24.375 5 22.8906 5 19.9219V14.6094Z" fill="white"/>
</svg>
