<svg width="32" height="32" viewBox="0 0 32 32" fill="none" xmlns="http://www.w3.org/2000/svg">
<circle cx="16" cy="16" r="16" fill="#4389EB"/>
<path d="M9.51466 18.2872L8.78448 18.4585L9.51466 18.2872ZM9.51466 13.7128L8.78448 13.5415L9.51466 13.7128ZM22.4853 13.7128L21.7552 13.8841L22.4853 13.7128ZM22.4853 18.2872L21.7552 18.1159L22.4853 18.2872ZM18.2872 22.4853L18.1159 21.7552L18.2872 22.4853ZM13.7128 22.4853L13.8841 21.7552L13.7128 22.4853ZM13.7128 9.51466L13.8841 10.2448L13.7128 9.51466ZM18.2872 9.51466L18.1159 10.2448L18.2872 9.51466ZM13.0194 13.5192C12.7265 13.2263 12.2516 13.2263 11.9587 13.5192C11.6659 13.8121 11.6659 14.2869 11.9587 14.5798L13.0194 13.5192ZM13.2693 14.8297L12.739 15.36C13.0318 15.6529 13.5067 15.6529 13.7996 15.36L13.2693 14.8297ZM15.36 13.7996C15.6529 13.5067 15.6529 13.0318 15.36 12.739C15.0671 12.4461 14.5923 12.4461 14.2994 12.739L15.36 13.7996ZM16.7802 13.6896C16.366 13.6896 16.0302 14.0254 16.0302 14.4396C16.0302 14.8538 16.366 15.1896 16.7802 15.1896V13.6896ZM19.5109 15.1896C19.9251 15.1896 20.2609 14.8538 20.2609 14.4396C20.2609 14.0254 19.9251 13.6896 19.5109 13.6896V15.1896ZM13.0194 17.4202C12.7265 17.1273 12.2516 17.1273 11.9587 17.4202C11.6659 17.7131 11.6659 18.1879 11.9587 18.4808L13.0194 17.4202ZM13.2693 18.7307L12.739 19.261C13.0318 19.5539 13.5067 19.5539 13.7996 19.261L13.2693 18.7307ZM15.36 17.7006C15.6529 17.4077 15.6529 16.9329 15.36 16.64C15.0671 16.3471 14.5923 16.3471 14.2994 16.64L15.36 17.7006ZM16.7802 17.5906C16.366 17.5906 16.0302 17.9264 16.0302 18.3406C16.0302 18.7548 16.366 19.0906 16.7802 19.0906V17.5906ZM19.5109 19.0906C19.9251 19.0906 20.2609 18.7548 20.2609 18.3406C20.2609 17.9264 19.9251 17.5906 19.5109 17.5906V19.0906ZM10.2448 18.1159C9.91839 16.7242 9.91839 15.2758 10.2448 13.8841L8.78448 13.5415C8.40517 15.1586 8.40517 16.8414 8.78448 18.4585L10.2448 18.1159ZM21.7552 13.8841C22.0816 15.2758 22.0816 16.7242 21.7552 18.1159L23.2155 18.4585C23.5948 16.8414 23.5948 15.1586 23.2155 13.5416L21.7552 13.8841ZM18.1159 21.7552C16.7242 22.0816 15.2758 22.0816 13.8841 21.7552L13.5415 23.2155C15.1586 23.5948 16.8414 23.5948 18.4585 23.2155L18.1159 21.7552ZM13.8841 10.2448C15.2758 9.91839 16.7242 9.91839 18.1159 10.2448L18.4585 8.78448C16.8414 8.40517 15.1586 8.40517 13.5415 8.78448L13.8841 10.2448ZM13.8841 21.7552C12.0784 21.3316 10.6684 19.9217 10.2448 18.1159L8.78448 18.4585C9.33815 20.8188 11.1812 22.6619 13.5415 23.2155L13.8841 21.7552ZM18.4585 23.2155C20.8188 22.6619 22.6619 20.8188 23.2155 18.4585L21.7552 18.1159C21.3316 19.9216 19.9216 21.3316 18.1159 21.7552L18.4585 23.2155ZM18.1159 10.2448C19.9216 10.6684 21.3316 12.0784 21.7552 13.8841L23.2155 13.5416C22.6619 11.1812 20.8188 9.33815 18.4585 8.78448L18.1159 10.2448ZM13.5415 8.78448C11.1812 9.33815 9.33815 11.1812 8.78448 13.5415L10.2448 13.8841C10.6684 12.0784 12.0784 10.6684 13.8841 10.2448L13.5415 8.78448ZM11.9587 14.5798L12.739 15.36L13.7996 14.2994L13.0194 13.5192L11.9587 14.5798ZM13.7996 15.36L15.36 13.7996L14.2994 12.739L12.739 14.2994L13.7996 15.36ZM16.7802 15.1896H19.5109V13.6896H16.7802V15.1896ZM11.9587 18.4808L12.739 19.261L13.7996 18.2004L13.0194 17.4202L11.9587 18.4808ZM13.7996 19.261L15.36 17.7006L14.2994 16.64L12.739 18.2004L13.7996 19.261ZM16.7802 19.0906H19.5109V17.5906H16.7802V19.0906Z" fill="white"/>
</svg>
