<svg width="32" height="32" viewBox="0 0 32 32" fill="none" xmlns="http://www.w3.org/2000/svg">
<circle cx="16" cy="16" r="16" fill="#4389EB"/>
<path d="M22.5549 13.2043C22.398 12.9362 22.0534 12.8461 21.7853 13.0031C21.5172 13.16 21.4271 13.5046 21.584 13.7727L22.5549 13.2043ZM22.0695 18.5115L21.584 18.2273L22.0695 18.5115ZM13.8735 21.0832C13.5797 20.9821 13.2596 21.1382 13.1585 21.432C13.0574 21.7257 13.2136 22.0458 13.5073 22.1469L13.8735 21.0832ZM9.93055 18.5115L10.416 18.2273L9.93055 18.5115ZM9.93055 13.4885L10.416 13.7727L9.93055 13.4885ZM17.4372 14.4762C17.662 14.6906 18.018 14.6822 18.2324 14.4574C18.4468 14.2326 18.4384 13.8765 18.2136 13.6621L17.4372 14.4762ZM13.5574 18.1868C13.7593 18.4229 14.1143 18.4507 14.3505 18.2488C14.5866 18.047 14.6144 17.6919 14.4125 17.4558L13.5574 18.1868ZM19.23 16.0455C19.23 15.7349 18.9782 15.483 18.6675 15.483C18.3569 15.483 18.105 15.7349 18.105 16.0455H19.23ZM15.9996 18.1925C15.6889 18.1925 15.4371 18.4443 15.4371 18.755C15.4371 19.0656 15.6889 19.3175 15.9996 19.3175V18.1925ZM22.3071 10.3946C22.5251 10.1732 22.5222 9.81707 22.3009 9.59913C22.0795 9.3812 21.7233 9.384 21.5054 9.6054L22.3071 10.3946ZM10.1148 21.1768C9.89682 21.3982 9.89963 21.7544 10.121 21.9723C10.3424 22.1902 10.6986 22.1874 10.9165 21.966L10.1148 21.1768ZM21.584 13.7727C22.3887 15.1473 22.3887 16.8527 21.584 18.2273L22.5549 18.7957C23.565 17.07 23.565 14.93 22.5549 13.2043L21.584 13.7727ZM21.584 18.2273C19.9163 21.0764 16.6303 22.0321 13.8735 21.0832L13.5073 22.1469C16.7308 23.2564 20.5955 22.143 22.5549 18.7957L21.584 18.2273ZM10.416 18.2273C9.61133 16.8527 9.61133 15.1473 10.416 13.7727L9.4451 13.2043C8.43497 14.93 8.43497 17.07 9.4451 18.7957L10.416 18.2273ZM11.8394 19.9291C11.2955 19.4693 10.8114 18.9028 10.416 18.2273L9.4451 18.7957C9.90486 19.5811 10.4717 20.246 11.1131 20.7883L11.8394 19.9291ZM10.416 13.7727C12.4512 10.2958 16.9013 9.63997 19.8424 11.8189L20.5121 10.915C17.063 8.3597 11.8369 9.11822 9.4451 13.2043L10.416 13.7727ZM13.895 16.0455C13.895 14.8503 14.8455 13.8977 15.9996 13.8977V12.7727C14.2073 12.7727 12.77 14.2459 12.77 16.0455H13.895ZM15.9996 13.8977C16.5544 13.8977 17.0594 14.116 17.4372 14.4762L18.2136 13.6621C17.6367 13.1119 16.8572 12.7727 15.9996 12.7727V13.8977ZM14.4125 17.4558C14.0905 17.079 13.895 16.5869 13.895 16.0455H12.77C12.77 16.8629 13.0665 17.6125 13.5574 18.1868L14.4125 17.4558ZM18.105 16.0455C18.105 17.2396 17.154 18.1925 15.9996 18.1925V19.3175C17.7915 19.3175 19.23 17.8446 19.23 16.0455H18.105ZM21.5054 9.6054L10.1148 21.1768L10.9165 21.966L22.3071 10.3946L21.5054 9.6054Z" fill="white"/>
</svg>
