<svg width="32" height="32" viewBox="0 0 32 32" fill="none" xmlns="http://www.w3.org/2000/svg">
<path d="M0 16C0 7.16344 7.16344 0 16 0C24.8366 0 32 7.16344 32 16C32 24.8366 24.8366 32 16 32C7.16344 32 0 24.8366 0 16Z" fill="white"/>
<path d="M0.5 16C0.5 7.43959 7.43959 0.5 16 0.5C24.5604 0.5 31.5 7.43959 31.5 16C31.5 24.5604 24.5604 31.5 16 31.5C7.43959 31.5 0.5 24.5604 0.5 16Z" stroke="#4389EB" stroke-opacity="0.2"/>
<path d="M15.7295 0.502361C18.5876 0.452472 21.4038 1.19393 23.8668 2.64475C26.3299 4.09557 28.3437 6.19924 29.6857 8.72319C31.0277 11.2471 31.6456 14.093 31.4711 16.9463C31.2966 19.7995 30.3365 22.5489 28.6969 24.8904" stroke="#4389EB" stroke-linecap="round" stroke-linejoin="round"/>
<path d="M20.9413 15.0512C18.945 15.7167 16.2833 13.055 16.9487 11.0587M17.7689 10.2385L13.4681 14.5393C11.5983 16.4091 10.2719 18.7518 9.63056 21.3171L9.42275 22.1483C9.35799 22.4074 9.59261 22.642 9.85161 22.5772L10.6829 22.3694C13.2481 21.7281 15.5909 20.4016 17.4606 18.5319L21.7615 14.2311C22.2909 13.7016 22.5883 12.9835 22.5883 12.2348C22.5883 10.6756 21.3244 9.41162 19.7652 9.41162C19.0164 9.41162 18.2983 9.70906 17.7689 10.2385Z" stroke="#4389EB" stroke-width="1.5"/>
</svg>
