<svg width="32" height="32" viewBox="0 0 32 32" fill="none" xmlns="http://www.w3.org/2000/svg">
<circle cx="16" cy="16" r="16" fill="#68CA87"/>
<path d="M7.35288 12.9504C8.00437 10.173 10.173 8.00437 12.9504 7.35288C14.9563 6.88237 17.0437 6.88237 19.0496 7.35288C21.827 8.00437 23.9956 10.173 24.6471 12.9504C25.1176 14.9563 25.1176 17.0437 24.6471 19.0496C23.9956 21.827 21.827 23.9956 19.0496 24.6471C17.0437 25.1176 14.9563 25.1176 12.9504 24.6471C10.173 23.9956 8.00437 21.827 7.35288 19.0496C6.88237 17.0437 6.88237 14.9563 7.35288 12.9504Z" stroke="white" stroke-width="1.5"/>
<path d="M13.25 15.75L15.25 17.75L18.75 14" stroke="white" stroke-width="1.5" stroke-linecap="round" stroke-linejoin="round"/>
</svg>
