<svg width="32" height="32" viewBox="0 0 32 32" fill="none" xmlns="http://www.w3.org/2000/svg">
<circle cx="16" cy="16" r="16" fill="#4389EB"/>
<path d="M9.93055 13.4885L9.4451 13.2043L9.93055 13.4885ZM22.0695 13.4885L22.5549 13.2043V13.2043L22.0695 13.4885ZM22.0695 18.5115L21.584 18.2273L22.0695 18.5115ZM9.93055 18.5115L10.416 18.2273L9.93055 18.5115ZM10.416 13.7727C12.9214 9.49245 19.0786 9.49245 21.584 13.7727L22.5549 13.2043C19.615 8.18189 12.385 8.18189 9.4451 13.2043L10.416 13.7727ZM21.584 13.7727C22.3887 15.1473 22.3887 16.8527 21.584 18.2273L22.5549 18.7957C23.565 17.07 23.565 14.93 22.5549 13.2043L21.584 13.7727ZM21.584 18.2273C19.0786 22.5076 12.9214 22.5076 10.416 18.2273L9.4451 18.7957C12.385 23.8181 19.615 23.8181 22.5549 18.7957L21.584 18.2273ZM10.416 18.2273C9.61133 16.8527 9.61133 15.1473 10.416 13.7727L9.4451 13.2043C8.43497 14.93 8.43497 17.07 9.4451 18.7957L10.416 18.2273ZM18.105 16.0455C18.105 17.2396 17.154 18.1925 15.9996 18.1925V19.3175C17.7915 19.3175 19.23 17.8446 19.23 16.0455H18.105ZM15.9996 18.1925C14.8454 18.1925 13.895 17.2398 13.895 16.0455H12.77C12.77 17.8444 14.2074 19.3175 15.9996 19.3175V18.1925ZM13.895 16.0455C13.895 14.8503 14.8455 13.8977 15.9996 13.8977V12.7727C14.2073 12.7727 12.77 14.2459 12.77 16.0455H13.895ZM15.9996 13.8977C17.1539 13.8977 18.105 14.8505 18.105 16.0455H19.23C19.23 14.2457 17.7916 12.7727 15.9996 12.7727V13.8977Z" fill="white"/>
</svg>
