<svg width="19" height="14" viewBox="0 0 19 14" fill="none" xmlns="http://www.w3.org/2000/svg">
<path d="M17.7359 5.26851H2.97474V1.40423V1.40037C2.97492 0.869123 3.41945 0.436903 3.96581 0.436903C4.19511 0.434818 4.41796 0.512808 4.59593 0.657426C4.7739 0.802045 4.89583 1.00423 4.9407 1.22911L4.33227 1.37201C4.304 1.37822 4.27723 1.38999 4.25355 1.40663C4.22986 1.42328 4.20971 1.44447 4.19428 1.46896C4.17886 1.49346 4.16845 1.52079 4.16368 1.54934C4.1589 1.5779 4.15985 1.60712 4.16647 1.6353C4.17309 1.66349 4.18525 1.69008 4.20223 1.71352C4.21922 1.73697 4.24069 1.7568 4.26541 1.77187C4.29013 1.78695 4.3176 1.79695 4.34623 1.80131C4.37485 1.80567 4.40405 1.8043 4.43214 1.79728L5.19668 1.61772C5.21522 1.61582 5.23344 1.61154 5.25089 1.60498L6.01004 1.42658C6.03813 1.42019 6.06469 1.4083 6.08817 1.3916C6.11165 1.37491 6.13159 1.35373 6.14685 1.32929C6.16212 1.30485 6.17239 1.27763 6.17709 1.24921C6.18179 1.22078 6.18082 1.1917 6.17423 1.16365C6.16764 1.1356 6.15557 1.10913 6.13871 1.08577C6.12185 1.0624 6.10054 1.04261 6.076 1.02751C6.05145 1.01242 6.02417 1.00233 5.99571 0.997831C5.96725 0.993328 5.93818 0.9945 5.91018 1.00128L5.36633 1.12899C5.29858 0.808325 5.12222 0.520868 4.86706 0.315177C4.61189 0.109485 4.29355 -0.00183371 3.96581 2.2852e-05C3.18233 2.2852e-05 2.54445 0.62225 2.53833 1.3893C2.53833 1.39251 2.53786 1.3956 2.53786 1.39884V5.26851H0.90149C0.599314 5.26851 0.362671 5.59038 0.362671 6.00123V6.08609C0.362671 6.38892 0.491478 6.6429 0.680101 6.75598C0.712607 8.05892 1.12992 9.32312 1.87948 10.3894C2.64137 11.4825 3.73986 12.3917 5.05648 13.019C5.2313 13.1015 5.42223 13.1442 5.61554 13.1441L13.0735 13.1452C13.2755 13.1453 13.4751 13.0987 13.6561 13.009C14.9372 12.3694 16.0119 11.4524 16.7641 10.3571C17.5116 9.26858 17.9206 8.02799 17.952 6.7594C18.1437 6.64788 18.2748 6.39184 18.2748 6.08609V6.00123C18.2748 5.59038 18.0381 5.26851 17.7359 5.26851ZM17.8379 6.00123V6.08609C17.8379 6.26376 17.7634 6.36937 17.7333 6.38193H15.5715V5.70539H17.7334C17.7635 5.71777 17.8379 5.82327 17.8379 6.00123ZM0.799551 6.00123C0.799551 5.82283 0.87393 5.71755 0.903856 5.70539H11.2858V6.38211H0.903966C0.873966 6.36977 0.799551 6.26427 0.799551 6.08627V6.00123Z" fill="#68CA87"/>
</svg>
