<svg width="20" height="14" viewBox="0 0 20 14" fill="none" xmlns="http://www.w3.org/2000/svg">
<path d="M18.3585 4.93959H17.7511V1.00966C17.7508 0.741982 17.6443 0.485355 17.455 0.296076C17.2658 0.106796 17.0091 0.000318589 16.7414 0H3.25855C2.99087 0.000318589 2.73424 0.106796 2.54496 0.296076C2.35568 0.485355 2.2492 0.741982 2.24888 1.00966V4.93959H1.64145C0.98292 4.93959 0.447021 5.54006 0.447021 6.27813V12.9088C0.447021 12.9706 0.47157 13.0298 0.515265 13.0735C0.558961 13.1172 0.618226 13.1418 0.680021 13.1418C0.741816 13.1418 0.80108 13.1172 0.844776 13.0735C0.888472 13.0298 0.91302 12.9706 0.91302 12.9088V11.652H19.087V12.9706C19.087 13.0324 19.1115 13.0916 19.1552 13.1353C19.1989 13.179 19.2582 13.2036 19.32 13.2036C19.3818 13.2036 19.441 13.179 19.4847 13.1353C19.5284 13.0916 19.553 13.0324 19.553 12.9706V6.27813C19.553 5.54006 19.0171 4.93959 18.3585 4.93959ZM6.04405 4.93959V3.52027C6.04405 3.03917 6.46539 2.64777 6.98331 2.64777H13.0167C13.5346 2.64777 13.9559 3.03917 13.9559 3.52027V4.93959H6.04405ZM0.91302 11.186V9.95552H19.087V11.186H0.91302Z" fill="#68CA87"/>
</svg>
