<svg width="14" height="14" viewBox="0 0 14 14" fill="none" xmlns="http://www.w3.org/2000/svg">
<path d="M7.69738 4.21729H6.01465V7.49855H7.69738C8.57881 7.49855 9.2959 6.78145 9.2959 5.90005V5.81578C9.2959 4.93438 8.57881 4.21729 7.69738 4.21729Z" fill="#68CA87"/>
<path d="M11.9498 2.05023C10.6276 0.728109 8.86977 0 7 0C5.13023 0 3.37239 0.728109 2.05023 2.05023C0.728137 3.37239 0 5.13026 0 7C0 8.86974 0.728137 10.6276 2.05026 11.9497C3.37239 13.2719 5.13023 14 7 14C8.86977 14 10.6276 13.2719 11.9498 11.9498C13.2719 10.6276 14 8.86974 14 7C14 5.13026 13.2719 3.37239 11.9498 2.05023ZM10.1172 5.89999C10.1172 7.23371 9.03213 8.31879 7.69839 8.31879H6.01565V10.6031H5.19534V3.39691H7.69839C9.03213 3.39691 10.1172 4.482 10.1172 5.81571V5.89999Z" fill="#68CA87"/>
</svg>
