<svg width="14" height="14" viewBox="0 0 14 14" fill="none" xmlns="http://www.w3.org/2000/svg">
<path d="M6.79049 11.9934L7.25614 11.8113L6.79049 11.9934ZM12.4806 8.42518L12.9679 8.53719L12.4806 8.42518ZM12.4828 5.15095L12.9701 5.03894L12.4828 5.15095ZM1.50156 5.29827L1.01427 5.18626V5.18626L1.50156 5.29827ZM1.50156 8.26805L1.98885 8.15605L1.50156 8.26805ZM8.78937 12.8822L8.59281 12.4225H8.59281L8.78937 12.8822ZM8.5403 1.18094L8.4239 1.6672V1.6672L8.5403 1.18094ZM5.47797 1.18094L5.59437 1.66721L5.47797 1.18094ZM8.86814 12.8485L9.0647 13.3083H9.0647L8.86814 12.8485ZM5.2239 1.24176L5.1075 0.755499L5.2239 1.24176ZM1.56079 5.04059L2.04809 5.15259L1.56079 5.04059ZM8.689 1.21654L8.8054 0.730274L8.689 1.21654ZM9.20247 4.53862C9.47861 4.53862 9.70247 4.76248 9.70247 5.03862C9.70247 5.31476 9.47861 5.53862 9.20247 5.53862V4.53862ZM5.18136 5.53862C4.90522 5.53862 4.68136 5.31476 4.68136 5.03862C4.68136 4.76248 4.90522 4.53862 5.18136 4.53862V5.53862ZM9.20247 6.84273C9.47861 6.84273 9.70247 7.06659 9.70247 7.34273C9.70247 7.61887 9.47861 7.84273 9.20247 7.84273V6.84273ZM6.64358 7.84273C6.36744 7.84273 6.14358 7.61887 6.14358 7.34273C6.14358 7.06659 6.36744 6.84273 6.64358 6.84273V7.84273ZM8.5726 1.7028L8.4239 1.6672L8.6567 0.69468L8.8054 0.730274L8.5726 1.7028ZM5.59437 1.66721L5.34029 1.72802L5.1075 0.755499L5.36157 0.69468L5.59437 1.66721ZM8.59281 12.4225L8.67159 12.3888L9.0647 13.3083L8.98592 13.342L8.59281 12.4225ZM2.04809 5.15259L1.98885 5.41028L1.01427 5.18626L1.0735 4.92858L2.04809 5.15259ZM5.55192 11.1178H6.2595V12.1178H5.55192V11.1178ZM6.2595 11.1178C6.71174 11.1178 7.09808 11.4072 7.25614 11.8113L6.32484 12.1756C6.30627 12.1281 6.272 12.1178 6.2595 12.1178V11.1178ZM11.9933 8.31317C12.2231 7.31347 12.225 6.26129 11.9956 5.26296L12.9701 5.03894C13.2338 6.18606 13.2312 7.39143 12.9679 8.53719L11.9933 8.31317ZM1.98885 5.41028C1.78148 6.31247 1.78148 7.25385 1.98885 8.15605L1.01427 8.38006C0.773006 7.33045 0.773006 6.23588 1.01427 5.18626L1.98885 5.41028ZM8.98592 13.342C7.92459 13.7957 6.74057 13.2384 6.32484 12.1756L7.25614 11.8113C7.48223 12.3893 8.09001 12.6374 8.59281 12.4225L8.98592 13.342ZM8.4239 1.6672C7.49256 1.44426 6.52571 1.44427 5.59437 1.66721L5.36157 0.69468C6.44595 0.435107 7.57232 0.435107 8.6567 0.69468L8.4239 1.6672ZM8.67159 12.3888C10.3236 11.6825 11.569 10.159 11.9933 8.31317L12.9679 8.53719C12.4762 10.6764 11.0272 12.4693 9.0647 13.3083L8.67159 12.3888ZM1.98885 8.15605C2.39197 9.90981 3.87605 11.1178 5.55192 11.1178V12.1178C3.37878 12.1178 1.5146 10.5567 1.01427 8.38006L1.98885 8.15605ZM5.34029 1.72802C3.72669 2.11428 2.44337 3.43288 2.04809 5.15259L1.0735 4.92858C1.549 2.85989 3.10392 1.2351 5.1075 0.755499L5.34029 1.72802ZM8.8054 0.730274C10.8735 1.22533 12.4791 2.90265 12.9701 5.03894L11.9956 5.26296C11.5847 3.47564 10.2508 2.10451 8.5726 1.7028L8.8054 0.730274ZM9.20247 5.53862H5.18136V4.53862H9.20247V5.53862ZM9.20247 7.84273H6.64358V6.84273H9.20247V7.84273Z" fill="#9C9EAD"/>
</svg>
