<svg width="16" height="16" viewBox="0 0 16 16" fill="none" xmlns="http://www.w3.org/2000/svg">
<path fill-rule="evenodd" clip-rule="evenodd" d="M12.6667 13.3334C13.0349 13.3334 13.3333 13.0349 13.3333 12.6667C13.3333 12.2986 13.0349 12.0001 12.6667 12.0001C12.2985 12.0001 12 12.2986 12 12.6667C12 13.0349 12.2985 13.3334 12.6667 13.3334ZM12.6667 14.6667C13.7712 14.6667 14.6667 13.7713 14.6667 12.6667C14.6667 11.5622 13.7712 10.6667 12.6667 10.6667C11.5621 10.6667 10.6667 11.5622 10.6667 12.6667C10.6667 13.7713 11.5621 14.6667 12.6667 14.6667Z" fill="#68CA87"/>
<path fill-rule="evenodd" clip-rule="evenodd" d="M10.3333 2.66659C9.41286 2.66659 8.66666 3.41278 8.66666 4.33325V11.6666C8.66666 13.3234 7.32352 14.6666 5.66666 14.6666C4.00981 14.6666 2.66666 13.3234 2.66666 11.6666V6.66659C2.66666 6.2984 2.96514 5.99992 3.33333 5.99992C3.70152 5.99992 4 6.2984 4 6.66659V11.6666C4 12.5871 4.74619 13.3333 5.66666 13.3333C6.58714 13.3333 7.33333 12.5871 7.33333 11.6666V4.33325C7.33333 2.6764 8.67648 1.33325 10.3333 1.33325C11.9902 1.33325 13.3333 2.6764 13.3333 4.33325V8.66659C13.3333 9.03478 13.0349 9.33325 12.6667 9.33325C12.2985 9.33325 12 9.03478 12 8.66659V4.33325C12 3.41278 11.2538 2.66659 10.3333 2.66659Z" fill="#68CA87"/>
<path d="M2.75749 1.65375C3.01474 1.21275 3.65194 1.21275 3.90919 1.65375L5.08183 3.664C5.34109 4.10843 5.02051 4.66657 4.50598 4.66657H2.1607C1.64617 4.66657 1.32559 4.10843 1.58484 3.66399L2.75749 1.65375Z" fill="#68CA87"/>
</svg>
