<svg width="20" height="20" viewBox="0 0 20 20" fill="none" xmlns="http://www.w3.org/2000/svg">
<path d="M6.66666 4.16667C6.20642 4.16667 5.83332 4.53976 5.83332 5C5.83332 5.46024 6.20642 5.83333 6.66666 5.83333H13.3333C13.7936 5.83333 14.1667 5.46024 14.1667 5C14.1667 4.53976 13.7936 4.16667 13.3333 4.16667H6.66666Z" fill="#68CA87"/>
<path d="M4.99999 14.1667C4.53975 14.1667 4.16666 14.5398 4.16666 15C4.16666 15.4602 4.53975 15.8333 4.99999 15.8333H15C15.4602 15.8333 15.8333 15.4602 15.8333 15C15.8333 14.5398 15.4602 14.1667 15 14.1667H4.99999Z" fill="#68CA87"/>
<path d="M4.84199 5.84425C5.29627 5.91807 5.60469 6.34618 5.53087 6.80046L4.44754 13.4671C4.37372 13.9214 3.94561 14.2298 3.49133 14.156C3.03705 14.0822 2.72863 13.6541 2.80245 13.1998L3.88578 6.53313C3.9596 6.07885 4.38771 5.77043 4.84199 5.84425Z" fill="#68CA87"/>
<path d="M14.469 6.80046C14.3952 6.34618 14.7036 5.91807 15.1579 5.84425C15.6122 5.77043 16.0403 6.07885 16.1141 6.53313L17.1974 13.1998C17.2712 13.6541 16.9628 14.0822 16.5085 14.156C16.0543 14.2298 15.6262 13.9214 15.5523 13.4671L14.469 6.80046Z" fill="#68CA87"/>
<path fill-rule="evenodd" clip-rule="evenodd" d="M17.5 5C17.5 6.38071 16.3807 7.5 15 7.5C13.6193 7.5 12.5 6.38071 12.5 5C12.5 3.61929 13.6193 2.5 15 2.5C16.3807 2.5 17.5 3.61929 17.5 5ZM15.8333 5C15.8333 5.46024 15.4602 5.83333 15 5.83333C14.5398 5.83333 14.1667 5.46024 14.1667 5C14.1667 4.53976 14.5398 4.16667 15 4.16667C15.4602 4.16667 15.8333 4.53976 15.8333 5Z" fill="#68CA87"/>
<path fill-rule="evenodd" clip-rule="evenodd" d="M19.1667 15C19.1667 16.3807 18.0474 17.5 16.6667 17.5C15.286 17.5 14.1667 16.3807 14.1667 15C14.1667 13.6193 15.286 12.5 16.6667 12.5C18.0474 12.5 19.1667 13.6193 19.1667 15ZM17.5 15C17.5 15.4602 17.1269 15.8333 16.6667 15.8333C16.2064 15.8333 15.8333 15.4602 15.8333 15C15.8333 14.5398 16.2064 14.1667 16.6667 14.1667C17.1269 14.1667 17.5 14.5398 17.5 15Z" fill="#68CA87"/>
<path fill-rule="evenodd" clip-rule="evenodd" d="M3.33334 17.5C4.71406 17.5 5.83334 16.3807 5.83334 15C5.83334 13.6193 4.71406 12.5 3.33334 12.5C1.95263 12.5 0.833344 13.6193 0.833344 15C0.833344 16.3807 1.95263 17.5 3.33334 17.5ZM3.33334 15.8333C3.79358 15.8333 4.16668 15.4602 4.16668 15C4.16668 14.5398 3.79358 14.1667 3.33334 14.1667C2.87311 14.1667 2.50001 14.5398 2.50001 15C2.50001 15.4602 2.87311 15.8333 3.33334 15.8333Z" fill="#68CA87"/>
<path fill-rule="evenodd" clip-rule="evenodd" d="M7.50001 5C7.50001 6.38071 6.38072 7.5 5.00001 7.5C3.6193 7.5 2.50001 6.38071 2.50001 5C2.50001 3.61929 3.6193 2.5 5.00001 2.5C6.38072 2.5 7.50001 3.61929 7.50001 5ZM5.83334 5C5.83334 5.46024 5.46025 5.83333 5.00001 5.83333C4.53977 5.83333 4.16668 5.46024 4.16668 5C4.16668 4.53976 4.53977 4.16667 5.00001 4.16667C5.46025 4.16667 5.83334 4.53976 5.83334 5Z" fill="#68CA87"/>
</svg>
