<svg width="14" height="12" viewBox="0 0 14 12" fill="none" xmlns="http://www.w3.org/2000/svg">
<path d="M1.60493 3.76752L1.17342 3.51493H1.17342L1.60493 3.76752ZM12.3951 3.76752L12.8266 3.51493V3.51493L12.3951 3.76752ZM12.3951 8.2324L11.9636 7.97982L12.3951 8.2324ZM1.60493 8.2324L2.03644 7.97982L1.60493 8.2324ZM2.03644 4.0201C4.26349 0.215467 9.73651 0.215468 11.9636 4.0201L12.8266 3.51493C10.2133 -0.949476 3.78667 -0.949476 1.17342 3.51493L2.03644 4.0201ZM11.9636 4.0201C12.6788 5.24203 12.6788 6.75789 11.9636 7.97982L12.8266 8.48499C13.7245 6.95104 13.7245 5.04888 12.8266 3.51493L11.9636 4.0201ZM11.9636 7.97982C9.73651 11.7845 4.26349 11.7845 2.03644 7.97982L1.17342 8.48499C3.78667 12.9494 10.2133 12.9494 12.8266 8.48499L11.9636 7.97982ZM2.03644 7.97982C1.32119 6.75789 1.32119 5.24203 2.03644 4.0201L1.17342 3.51493C0.275526 5.04888 0.275526 6.95104 1.17342 8.48499L2.03644 7.97982ZM8.87113 6.04043C8.87113 7.10182 8.02579 7.94881 6.99963 7.94881V8.94881C8.59246 8.94881 9.87113 7.63961 9.87113 6.04043H8.87113ZM6.99963 7.94881C5.97366 7.94881 5.12888 7.10202 5.12888 6.04043H4.12888C4.12888 7.6394 5.40659 8.94881 6.99963 8.94881V7.94881ZM5.12888 6.04043C5.12888 4.97796 5.97376 4.13128 6.99963 4.13128V3.13128C5.40649 3.13128 4.12888 4.44079 4.12888 6.04043H5.12888ZM6.99963 4.13128C8.02569 4.13128 8.87113 4.97817 8.87113 6.04043H9.87113C9.87113 4.44059 8.59256 3.13128 6.99963 3.13128V4.13128Z" fill="#9C9EAD"/>
</svg>
