<svg width="18" height="20" viewBox="0 0 18 20" fill="none" xmlns="http://www.w3.org/2000/svg">
<path d="M12.2909 0C11.2247 0.0737495 9.97843 0.756245 9.25218 1.64499C8.58969 2.45123 8.04469 3.64873 8.25719 4.81247C9.42218 4.84872 10.6259 4.14997 11.3234 3.24623C11.9759 2.40498 12.4697 1.21499 12.2909 0Z" fill="white"/>
<path d="M16.5044 6.70989C15.4807 5.42615 14.0419 4.68115 12.6832 4.68115C10.8895 4.68115 10.1307 5.5399 8.88447 5.5399C7.59948 5.5399 6.62324 4.68365 5.072 4.68365C3.54826 4.68365 1.92577 5.6149 0.897025 7.20739C-0.549215 9.44987 -0.301717 13.6661 2.04202 17.2573C2.88076 18.5423 4.00075 19.9873 5.46574 19.9998C6.76948 20.0123 7.13698 19.1636 8.90322 19.1548C10.6695 19.1448 11.0045 20.011 12.3057 19.9973C13.7719 19.986 14.9532 18.3848 15.7919 17.0998C16.3932 16.1786 16.6169 15.7148 17.0832 14.6748C13.6919 13.3836 13.1482 8.56113 16.5044 6.70989Z" fill="white"/>
</svg>
