<svg width="14" height="14" viewBox="0 0 14 14" fill="none" xmlns="http://www.w3.org/2000/svg">
<circle cx="7" cy="7" r="7" fill="#9C9EAD"/>
<path fill-rule="evenodd" clip-rule="evenodd" d="M4.47487 4.52513C4.69069 4.30931 5.0406 4.30931 5.25641 4.52513L6.94975 6.21846L8.64308 4.52513C8.8589 4.30931 9.2088 4.30931 9.42462 4.52513C9.64044 4.74094 9.64044 5.09085 9.42462 5.30667L7.73129 7L9.42462 8.69333C9.64044 8.90915 9.64044 9.25906 9.42462 9.47487C9.2088 9.69069 8.8589 9.69069 8.64308 9.47487L6.94975 7.78154L5.25641 9.47487C5.0406 9.69069 4.69069 9.69069 4.47487 9.47487C4.25906 9.25906 4.25906 8.90915 4.47487 8.69333L6.16821 7L4.47487 5.30667C4.25906 5.09085 4.25906 4.74094 4.47487 4.52513Z" fill="white"/>
</svg>
