<svg width="43" height="43" viewBox="0 0 43 43" fill="none" xmlns="http://www.w3.org/2000/svg">
<g clip-path="url(#clip0)">
<path d="M22.0655 21.9928C22.3584 21.6999 22.3584 21.225 22.0655 20.9321C21.7726 20.6392 21.2977 20.6392 21.0048 20.9321L22.0655 21.9928ZM19.5831 24.4752L22.0655 21.9928L21.0048 20.9321L18.5224 23.4145L19.5831 24.4752Z" fill="#9C9EAD"/>
<path d="M14.9005 15.1934L14.6839 14.4754L14.9005 15.1934ZM26.8702 11.5821L27.0868 12.3001L27.0868 12.3001L26.8702 11.5821ZM31.4044 16.1227L32.1221 16.3405L31.4044 16.1227ZM27.779 28.0702L27.0614 27.8524L27.779 28.0702ZM21.4218 28.3395L20.7616 28.6954L21.4218 28.3395ZM14.6228 21.5504L14.2662 22.2101L14.6228 21.5504ZM18.7193 23.7646L18.3627 24.4244L18.7193 23.7646ZM15.1172 15.9115L27.0868 12.3001L26.6535 10.864L14.6839 14.4754L15.1172 15.9115ZM30.6867 15.905L27.0614 27.8524L28.4967 28.2879L32.1221 16.3405L30.6867 15.905ZM22.0819 27.9835L19.8918 23.9216L18.5715 24.6334L20.7616 28.6954L22.0819 27.9835ZM19.0759 23.1048L14.9794 20.8906L14.2662 22.2101L18.3627 24.4244L19.0759 23.1048ZM27.0614 27.8524C26.7282 28.9502 25.817 29.5334 24.8028 29.5764C23.7813 29.6197 22.6873 29.1063 22.0819 27.9835L20.7616 28.6954C21.6539 30.3503 23.3018 31.1413 24.8663 31.0751C26.4379 31.0085 27.9565 30.0682 28.4967 28.2879L27.0614 27.8524ZM27.0868 12.3001C29.195 11.6641 31.3259 13.7984 30.6867 15.905L32.1221 16.3405C33.1092 13.0874 29.9081 9.88211 26.6535 10.864L27.0868 12.3001ZM14.6839 14.4754C12.9023 15.0129 11.9596 16.5304 11.8909 18.1022C11.8226 19.6668 12.6118 21.3159 14.2662 22.2101L14.9794 20.8906C13.857 20.2839 13.3449 19.1891 13.3895 18.1677C13.4338 17.1535 14.0184 16.243 15.1172 15.9115L14.6839 14.4754ZM19.8918 23.9216C19.7053 23.5756 19.4217 23.2917 19.0759 23.1048L18.3627 24.4244C18.4512 24.4722 18.5238 24.5449 18.5715 24.6334L19.8918 23.9216Z" fill="#383E4D"/>
</g>
<defs>
<clipPath id="clip0">
<rect width="30.3849" height="30.3849" fill="white" transform="translate(0 21.4854) rotate(-45)"/>
</clipPath>
</defs>
</svg>
