<svg width="33" height="36" viewBox="0 0 33 36" fill="none" xmlns="http://www.w3.org/2000/svg">
<path d="M16.1528 17.4268C16.5869 17.4268 16.9388 17.0749 16.9388 16.6408C16.9388 16.2067 16.5869 15.8547 16.1528 15.8547C15.7187 15.8547 15.3668 16.2067 15.3668 16.6408C15.3668 17.0749 15.7187 17.4268 16.1528 17.4268Z" fill="#1B1E25"/>
<path d="M16.1524 12.7104C13.9854 12.7104 12.2222 14.3967 12.2222 16.4687C12.2222 17.4554 12.672 18.7675 13.559 20.3688C14.2713 21.6545 15.0954 22.8171 15.524 23.3955C15.5965 23.4944 15.6912 23.5748 15.8005 23.6302C15.9098 23.6856 16.0306 23.7145 16.1531 23.7145C16.2757 23.7145 16.3965 23.6856 16.5058 23.6302C16.6151 23.5748 16.7098 23.4944 16.7822 23.3955C17.2101 22.8171 18.0349 21.6545 18.7473 20.3688C19.6328 18.768 20.0825 17.4559 20.0825 16.4687C20.0825 14.3967 18.3194 12.7104 16.1524 12.7104ZM16.1524 18.2127C15.8415 18.2127 15.5375 18.1205 15.279 17.9477C15.0205 17.775 14.819 17.5295 14.7 17.2422C14.581 16.9549 14.5499 16.6389 14.6105 16.3339C14.6712 16.029 14.8209 15.7488 15.0408 15.529C15.2606 15.3091 15.5407 15.1594 15.8457 15.0987C16.1506 15.0381 16.4667 15.0692 16.754 15.1882C17.0412 15.3072 17.2868 15.5087 17.4595 15.7672C17.6322 16.0257 17.7244 16.3297 17.7244 16.6406C17.724 17.0574 17.5582 17.457 17.2635 17.7517C16.9688 18.0464 16.5692 18.2122 16.1524 18.2127Z" fill="#1B1E25"/>
<path d="M31.8579 13.4583C33.8785 20.4184 29.8804 28.6855 23.9824 32.5329C18.1206 36.3566 10.3921 35.7906 5.75486 32.1642C1.15346 28.5658 -0.489946 21.8654 1.34767 15.045C2.27961 11.6533 4.0741 8.2722 6.46834 5.68875C8.86325 3.10457 11.8223 1.35402 15.0896 1.12553C18.3728 0.895941 22.0549 2.20902 25.1932 4.49841C28.3284 6.78549 30.8481 9.99461 31.8579 13.4583Z" fill="#4791FA" fill-opacity="0.1" stroke="#1B1E25" stroke-width="1.22222"/>
</svg>
