<svg width="24" height="24" viewBox="0 0 24 24" fill="none" xmlns="http://www.w3.org/2000/svg">
<path d="M18.48 18.5368H21M10.169 12.0441H21M12.801 5.55124L3 5.55124M21 5.55124H18.48M3 18.5368H12.801" stroke="#383E4D" stroke-width="1.5" stroke-linecap="round"/>
<path d="M17.8799 18.6C17.8799 19.9255 16.8054 21 15.4799 21C14.1544 21 13.0799 19.9255 13.0799 18.6C13.0799 17.2745 14.1544 16.2 15.4799 16.2C16.8054 16.2 17.8799 17.2745 17.8799 18.6Z" stroke="#9C9EAD" stroke-width="1.5" stroke-linecap="round"/>
<path d="M9.47993 12C9.47993 13.3255 8.40542 14.4 7.07993 14.4C5.75445 14.4 4.67993 13.3255 4.67993 12C4.67993 10.6745 5.75445 9.6 7.07993 9.6C8.40542 9.6 9.47993 10.6745 9.47993 12Z" stroke="#9C9EAD" stroke-width="1.5" stroke-linecap="round"/>
<path d="M17.8799 5.4C17.8799 6.72548 16.8054 7.8 15.4799 7.8C14.1544 7.8 13.0799 6.72548 13.0799 5.4C13.0799 4.07452 14.1544 3 15.4799 3C16.8054 3 17.8799 4.07452 17.8799 5.4Z" stroke="#9C9EAD" stroke-width="1.5" stroke-linecap="round"/>
</svg>
