<svg width="28" height="28" viewBox="0 0 28 28" fill="none" xmlns="http://www.w3.org/2000/svg">
<path d="M6.3737 21.56V24.5M13.9485 11.8638V24.5M21.5236 14.9345L21.5236 3.5M21.5236 24.5V21.56M6.37369 3.5V14.9345" stroke="#383E4D" stroke-width="1.75" stroke-linecap="round"/>
<path d="M6.3 20.86C4.7536 20.86 3.5 19.6064 3.5 18.06C3.5 16.5136 4.7536 15.26 6.3 15.26C7.8464 15.26 9.1 16.5136 9.1 18.06C9.1 19.6064 7.8464 20.86 6.3 20.86Z" stroke="#9C9EAD" stroke-width="1.75" stroke-linecap="round"/>
<path d="M14 11.06C12.4536 11.06 11.2 9.80636 11.2 8.25996C11.2 6.71356 12.4536 5.45996 14 5.45996C15.5464 5.45996 16.8 6.71356 16.8 8.25996C16.8 9.80636 15.5464 11.06 14 11.06Z" stroke="#9C9EAD" stroke-width="1.75" stroke-linecap="round"/>
<path d="M21.7 20.86C20.1536 20.86 18.9 19.6064 18.9 18.06C18.9 16.5136 20.1536 15.26 21.7 15.26C23.2464 15.26 24.5 16.5136 24.5 18.06C24.5 19.6064 23.2464 20.86 21.7 20.86Z" stroke="#9C9EAD" stroke-width="1.75" stroke-linecap="round"/>
</svg>
