<svg width="21" height="20" viewBox="0 0 21 20" fill="none" xmlns="http://www.w3.org/2000/svg">
<path d="M10.5004 3.86667C12.3782 3.86667 13.6449 4.67778 14.3671 5.35556L17.1893 2.6C15.456 0.988889 13.2004 0 10.5004 0C6.58932 0 3.21154 2.24444 1.5671 5.51111L4.80043 8.02222C5.61154 5.61111 7.85599 3.86667 10.5004 3.86667Z" fill="#EA4335"/>
<path d="M20.1007 10.2222C20.1007 9.39996 20.034 8.79996 19.8896 8.17773H10.5007V11.8888H16.0118C15.9007 12.8111 15.3007 14.2 13.9674 15.1333L17.1229 17.5777C19.0118 15.8333 20.1007 13.2666 20.1007 10.2222Z" fill="#4285F4"/>
<path d="M4.81111 11.9778C4.6 11.3556 4.47778 10.6889 4.47778 10C4.47778 9.31111 4.6 8.64444 4.8 8.02222L1.56667 5.51111C0.888889 6.86666 0.5 8.38889 0.5 10C0.5 11.6111 0.888889 13.1333 1.56667 14.4889L4.81111 11.9778Z" fill="#FBBC05"/>
<path d="M10.4995 20C13.1995 20 15.4662 19.1111 17.1217 17.5778L13.9662 15.1333C13.1217 15.7222 11.9884 16.1333 10.4995 16.1333C7.85505 16.1333 5.6106 14.3889 4.8106 11.9778L1.57727 14.4889C3.22172 17.7556 6.58838 20 10.4995 20Z" fill="#34A853"/>
</svg>
