<svg width="24" height="24" viewBox="0 0 24 24" fill="none" xmlns="http://www.w3.org/2000/svg">
<path d="M3.68764 9.06846C4.31392 6.39856 6.3986 4.31388 9.0685 3.6876C10.9967 3.23532 13.0033 3.23532 14.9315 3.6876C17.6014 4.31388 19.6861 6.39856 20.3124 9.06846C20.7647 10.9966 20.7647 13.0033 20.3124 14.9315C19.6861 17.6014 17.6014 19.6861 14.9315 20.3123C13.0033 20.7646 10.9967 20.7646 9.0685 20.3123C6.3986 19.6861 4.31392 17.6014 3.68764 14.9315C3.23535 13.0033 3.23535 10.9966 3.68764 9.06846Z" stroke="#383E4D" stroke-width="1.5"/>
<path d="M9 9H13M9 15H12M9 12H15" stroke="#9C9EAD" stroke-width="1.5" stroke-linecap="round"/>
</svg>
