<svg width="16" height="16" viewBox="0 0 16 16" fill="none" xmlns="http://www.w3.org/2000/svg">
<path d="M2.45306 5.98141L2.30774 5.50299L2.45306 5.98141ZM9.19573 3.93344L9.34104 4.41185L9.19573 3.93344ZM11.7425 6.48385L12.2207 6.62992L11.7425 6.48385ZM9.68669 13.214L9.2085 13.068L9.68669 13.214ZM6.10761 13.3736L5.66721 13.6104L6.10761 13.3736ZM2.28873 9.5603L2.05151 10.0004L2.28873 9.5603ZM6.53325 9.8555C6.72851 9.66024 6.72851 9.34366 6.53325 9.14839C6.33799 8.95313 6.02141 8.95313 5.82614 9.14839L6.53325 9.8555ZM2.59837 6.45983L9.34104 4.41185L9.05042 3.45502L2.30774 5.50299L2.59837 6.45983ZM11.2643 6.33778L9.2085 13.068L10.1649 13.3601L12.2207 6.62992L11.2643 6.33778ZM6.548 13.1369L5.21955 10.6657L4.33876 11.1392L5.66721 13.6104L6.548 13.1369ZM5.01637 10.4623L2.52594 9.12015L2.05151 10.0004L4.54194 11.3426L5.01637 10.4623ZM5.13271 11.256L6.53325 9.8555L5.82614 9.14839L4.4256 10.5489L5.13271 11.256ZM9.2085 13.068C9.02999 13.6524 8.54644 13.9638 8.00401 13.988C7.45712 14.0124 6.87181 13.7392 6.548 13.1369L5.66721 13.6104C6.18299 14.5698 7.1396 15.0275 8.04855 14.987C8.96195 14.9462 9.84815 14.397 10.1649 13.3601L9.2085 13.068ZM9.34104 4.41185C10.4688 4.06933 11.6085 5.21093 11.2643 6.33778L12.2207 6.62992C12.7987 4.73756 10.9436 2.87999 9.05042 3.45502L9.34104 4.41185ZM2.30774 5.50299C1.2701 5.81816 0.719413 6.7037 0.677469 7.61719C0.63573 8.52622 1.09239 9.48353 2.05151 10.0004L2.52594 9.12015C1.92376 8.79561 1.65131 8.2099 1.67642 7.66306C1.70132 7.12067 2.01345 6.63749 2.59837 6.45983L2.30774 5.50299Z" fill="#4389EB"/>
</svg>
