<svg width="14" height="16" viewBox="0 0 14 16" fill="none" xmlns="http://www.w3.org/2000/svg">
<path d="M2.0666 4.07922L2.49155 4.34269L2.0666 4.07922ZM4.63908 1.50674L4.90255 1.93169L4.63908 1.50674ZM11.9334 8.80106L12.3583 9.06453L11.9334 8.80106ZM9.36092 11.3735L9.62439 11.7985L9.36092 11.3735ZM4.63908 11.3735L4.90255 10.9486L4.63908 11.3735ZM2.0666 8.80106L1.64165 9.06453L2.0666 8.80106ZM9.36092 1.50674L9.62439 1.08179L9.36092 1.50674ZM11.9334 4.07922L12.3584 3.81575L11.9334 4.07922ZM6.5 15.8187C6.5 16.0948 6.72386 16.3187 7 16.3187C7.27614 16.3187 7.5 16.0948 7.5 15.8187H6.5ZM2.49155 4.34269C3.09846 3.36379 3.92365 2.5386 4.90255 1.93169L4.37561 1.08179C3.26559 1.77 2.32986 2.70572 1.64165 3.81575L2.49155 4.34269ZM11.5084 8.53759C10.9015 9.51648 10.0763 10.3417 9.09745 10.9486L9.62439 11.7985C10.7344 11.1103 11.6701 10.1746 12.3583 9.06453L11.5084 8.53759ZM4.90255 10.9486C3.92365 10.3417 3.09847 9.51648 2.49155 8.53759L1.64165 9.06453C2.32986 10.1746 3.26559 11.1103 4.37561 11.7985L4.90255 10.9486ZM9.09745 1.93169C10.0763 2.5386 10.9015 3.36379 11.5084 4.34268L12.3584 3.81575C11.6701 2.70572 10.7344 1.77 9.62439 1.08179L9.09745 1.93169ZM2.49155 8.53759C1.69495 7.25275 1.69495 5.62753 2.49155 4.34269L1.64165 3.81575C0.644913 5.42338 0.644916 7.4569 1.64165 9.06453L2.49155 8.53759ZM4.37561 11.7985C5.98324 12.7952 8.01676 12.7952 9.62439 11.7985L9.09745 10.9486C7.81261 11.7452 6.18739 11.7452 4.90255 10.9486L4.37561 11.7985ZM11.5084 4.34268C12.3051 5.62753 12.3051 7.25274 11.5084 8.53759L12.3583 9.06453C13.3551 7.45689 13.3551 5.42338 12.3584 3.81575L11.5084 4.34268ZM9.62439 1.08179C8.01676 0.0850534 5.98325 0.0850525 4.37561 1.08179L4.90255 1.93169C6.18739 1.13508 7.81261 1.13509 9.09745 1.93169L9.62439 1.08179ZM6.5 12.3634V15.8187H7.5V12.3634H6.5Z" fill="#4389EB"/>
</svg>
