<svg width="17" height="18" viewBox="0 0 17 18" fill="none" xmlns="http://www.w3.org/2000/svg">
<path d="M9.30855 15.4588L8.79033 16.0009H8.79033L9.30855 15.4588ZM8.69982 14.8769L9.21804 14.3348H9.21804L8.69982 14.8769ZM14.7955 14.0187L15.522 14.2047L14.7955 14.0187ZM7.36886 13.6019C6.95465 13.6019 6.61886 13.9376 6.61886 14.3519C6.61886 14.7661 6.95465 15.1019 7.36886 15.1019V13.6019ZM16.0163 7.12055C15.9701 6.70893 15.5989 6.41271 15.1873 6.45894C14.7757 6.50517 14.4795 6.87633 14.5257 7.28795L16.0163 7.12055ZM0.888281 10.6276L1.62782 10.5028V10.5028L0.888281 10.6276ZM0.879836 10.5776L0.140297 10.7024L0.140297 10.7024L0.879836 10.5776ZM0.879835 8.05203L1.61937 8.17686L1.61937 8.17686L0.879835 8.05203ZM0.888282 8.00199L0.148743 7.87715L0.148743 7.87716L0.888282 8.00199ZM8.69982 3.75269L9.21804 4.29486L9.21804 4.29486L8.69982 3.75269ZM9.30854 3.17086L8.79033 2.62869L8.79032 2.62869L9.30854 3.17086ZM3.80006 4.71564L3.56559 4.00323H3.56559L3.80006 4.71564ZM3.56527 14.6263C3.95866 14.756 4.38269 14.5422 4.51236 14.1488C4.64204 13.7554 4.42825 13.3314 4.03486 13.2017L3.56527 14.6263ZM16.7413 2.03033C17.0342 1.73744 17.0342 1.26256 16.7413 0.96967C16.4484 0.676777 15.9736 0.676777 15.6807 0.96967L16.7413 2.03033ZM0.969671 15.6807C0.676777 15.9735 0.676776 16.4484 0.969669 16.7413C1.26256 17.0342 1.73743 17.0342 2.03033 16.7413L0.969671 15.6807ZM9.82677 14.9166L9.21804 14.3348L8.1816 15.4191L8.79033 16.0009L9.82677 14.9166ZM8.79033 16.0009C10.9681 18.0825 14.7687 17.1464 15.522 14.2047L14.0689 13.8326C13.6216 15.5793 11.2387 16.2661 9.82677 14.9166L8.79033 16.0009ZM7.36886 15.1019C7.68205 15.1019 7.97399 15.2207 8.1816 15.4191L9.21804 14.3348C8.72261 13.8612 8.05592 13.6019 7.36886 13.6019V15.1019ZM14.5257 7.28795C14.7709 9.47164 14.6188 11.6854 14.0689 13.8326L15.522 14.2047C16.117 11.8814 16.2818 9.48484 16.0163 7.12055L14.5257 7.28795ZM6.5393 5.02778H7.36886V3.52778H6.5393V5.02778ZM1.62782 10.5028L1.61937 10.4528L0.140297 10.7024L0.148743 10.7525L1.62782 10.5028ZM1.61937 8.17686L1.62782 8.12682L0.148743 7.87716L0.140297 7.92719L1.61937 8.17686ZM9.21804 4.29486L9.82676 3.71303L8.79032 2.62869L8.1816 3.21052L9.21804 4.29486ZM1.61937 10.4528C1.49211 9.69883 1.49211 8.9308 1.61937 8.17686L0.140297 7.92719C-0.0148648 8.84641 -0.0148646 9.78323 0.140297 10.7024L1.61937 10.4528ZM4.03453 5.42805C4.83908 5.16325 5.68588 5.02778 6.5393 5.02778V3.52778C5.52752 3.52778 4.52237 3.68833 3.56559 4.00323L4.03453 5.42805ZM4.03486 13.2017L4.03256 13.2009L3.56297 14.6255L3.56527 14.6263L4.03486 13.2017ZM4.03261 13.2009C2.74408 12.7761 1.83477 11.7288 1.62782 10.5028L0.148743 10.7525C0.454035 12.5611 1.7798 14.0376 3.56292 14.6255L4.03261 13.2009ZM7.36886 5.02778C8.05592 5.02778 8.72261 4.76841 9.21804 4.29486L8.1816 3.21052C7.97399 3.40896 7.68205 3.52778 7.36886 3.52778V5.02778ZM3.56559 4.00323C1.78112 4.59055 0.454188 6.06763 0.148743 7.87715L1.62782 8.12682C1.83487 6.90021 2.74499 5.85247 4.03453 5.42805L3.56559 4.00323ZM9.82676 3.71303C11.0319 2.56111 13.0017 2.88877 13.7931 4.15106L15.064 3.35432C13.7763 1.3003 10.6933 0.809784 8.79033 2.62869L9.82676 3.71303ZM15.6807 0.96967L3.26744 13.3829L4.3281 14.4436L16.7413 2.03033L15.6807 0.96967ZM3.26744 13.3829L0.969671 15.6807L2.03033 16.7413L4.3281 14.4436L3.26744 13.3829Z" fill="white"/>
</svg>
