<svg width="16" height="16" viewBox="0 0 16 16" fill="none" xmlns="http://www.w3.org/2000/svg">
<path d="M8.20574 12.3059L7.86026 12.6673L8.20574 12.3059ZM7.79992 11.918L8.1454 11.5565H8.1454L7.79992 11.918ZM11.8637 11.3458L12.3481 11.4698L11.8637 11.3458ZM6.91261 11.0679C6.63647 11.0679 6.41261 11.2918 6.41261 11.5679C6.41261 11.844 6.63647 12.0679 6.91261 12.0679V11.0679ZM12.6776 6.74704C12.6468 6.47262 12.3993 6.27514 12.1249 6.30596C11.8505 6.33678 11.653 6.58422 11.6838 6.85864L12.6776 6.74704ZM2.59223 9.08509L3.08525 9.00187L2.59223 9.08509ZM2.5866 9.05174L2.09357 9.13496H2.09357L2.5866 9.05174ZM2.5866 7.36802L3.07962 7.45124L3.07962 7.45124L2.5866 7.36802ZM2.59223 7.33466L2.0992 7.25144L2.0992 7.25144L2.59223 7.33466ZM7.79992 4.50179L8.1454 4.86324L8.1454 4.86324L7.79992 4.50179ZM8.20574 4.1139L7.86026 3.75246L7.86026 3.75246L8.20574 4.1139ZM4.53342 5.14376L4.3771 4.66882H4.3771L4.53342 5.14376ZM4.37689 11.7509C4.63915 11.8373 4.92183 11.6948 5.00828 11.4325C5.09473 11.1703 4.95221 10.8876 4.68995 10.8011L4.37689 11.7509ZM13.1609 3.35355C13.3562 3.15829 13.3562 2.84171 13.1609 2.64645C12.9657 2.45118 12.6491 2.45118 12.4538 2.64645L13.1609 3.35355ZM2.64649 12.4538C2.45123 12.649 2.45122 12.9656 2.64649 13.1609C2.84175 13.3561 3.15833 13.3561 3.35359 13.1609L2.64649 12.4538ZM8.55122 11.9444L8.1454 11.5565L7.45444 12.2794L7.86026 12.6673L8.55122 11.9444ZM7.86026 12.6673C9.31212 14.055 11.8459 13.4309 12.3481 11.4698L11.3793 11.2217C11.0811 12.3862 9.49248 12.8441 8.55122 11.9444L7.86026 12.6673ZM6.91261 12.0679C7.12141 12.0679 7.31604 12.1471 7.45444 12.2794L8.1454 11.5565C7.81511 11.2408 7.37066 11.0679 6.91261 11.0679V12.0679ZM11.6838 6.85864C11.8473 8.31443 11.7459 9.79027 11.3793 11.2217L12.3481 11.4698C12.7447 9.92094 12.8546 8.32322 12.6776 6.74704L11.6838 6.85864ZM6.35958 5.35185H6.91261V4.35185H6.35958V5.35185ZM3.08525 9.00187L3.07962 8.96852L2.09357 9.13496L2.0992 9.16832L3.08525 9.00187ZM3.07962 7.45124L3.08525 7.41788L2.0992 7.25144L2.09357 7.2848L3.07962 7.45124ZM8.1454 4.86324L8.55122 4.47535L7.86026 3.75246L7.45444 4.14035L8.1454 4.86324ZM3.07962 8.96852C2.99478 8.46589 2.99478 7.95387 3.07962 7.45124L2.09357 7.2848C1.99013 7.89761 1.99013 8.52215 2.09357 9.13496L3.07962 8.96852ZM4.68973 5.6187C5.22609 5.44217 5.79063 5.35185 6.35958 5.35185V4.35185C5.68505 4.35185 5.01496 4.45889 4.3771 4.66882L4.68973 5.6187ZM4.68995 10.8011L4.68842 10.8006L4.37535 11.7504L4.37689 11.7509L4.68995 10.8011ZM4.68845 10.8006C3.82943 10.5174 3.22322 9.81921 3.08525 9.00187L2.0992 9.16832C2.30273 10.3741 3.18657 11.3584 4.37532 11.7503L4.68845 10.8006ZM6.91261 5.35185C7.37066 5.35185 7.81511 5.17894 8.1454 4.86324L7.45444 4.14035C7.31604 4.27264 7.12141 4.35185 6.91261 4.35185V5.35185ZM4.3771 4.66882C3.18745 5.06037 2.30283 6.04508 2.0992 7.25144L3.08525 7.41788C3.22329 6.60014 3.83003 5.90165 4.68973 5.6187L4.3771 4.66882ZM8.55122 4.47535C9.35466 3.7074 10.6679 3.92585 11.1954 4.76738L12.0427 4.23621C11.1842 2.86687 9.1289 2.53986 7.86026 3.75246L8.55122 4.47535ZM12.4538 2.64645L4.17833 10.9219L4.88544 11.629L13.1609 3.35355L12.4538 2.64645ZM4.17833 10.9219L2.64649 12.4538L3.35359 13.1609L4.88544 11.629L4.17833 10.9219Z" fill="#383E4D"/>
</svg>
