<svg width="8" height="4" viewBox="0 0 8 4" fill="none" xmlns="http://www.w3.org/2000/svg">
<path d="M1.86845 3.97667L0.0228517 2.06505C-0.00761723 2.03344 -0.00761723 1.96658 0.0228517 1.93501L1.86854 0.0232682C1.89062 0.000513077 1.92356 -0.00622654 1.95217 0.00604582C1.95813 0.00858331 1.96274 0.0114124 1.96614 0.0137837C1.98696 0.0283854 2 0.0564239 2 0.087208V3.91294C2 3.94355 1.98702 3.97176 1.96614 3.98623C1.96267 3.98869 1.95803 3.99152 1.95249 3.99389C1.92356 4.00624 1.89059 3.99955 1.86845 3.97667Z" fill="#4389EB"/>
<path d="M5.55538 0.0233332L7.40098 1.93495C7.43145 1.96656 7.43145 2.03342 7.40098 2.06499L5.55528 3.97673C5.53321 3.99949 5.50027 4.00623 5.47166 3.99395C5.4657 3.99142 5.46109 3.98859 5.45769 3.98622C5.43687 3.97161 5.42383 3.94358 5.42383 3.91279V0.0870648C5.42383 0.056447 5.4368 0.028242 5.45769 0.0137651C5.46115 0.0113107 5.4658 0.00848186 5.47134 0.00611065C5.50027 -0.00624463 5.53324 0.000453012 5.55538 0.0233332Z" fill="#4389EB"/>
</svg>
