<svg width="128" height="28" viewBox="0 0 128 28" fill="none" xmlns="http://www.w3.org/2000/svg">
<rect opacity="0.2" y="20" width="8" height="8" rx="2" fill="#4389EB"/>
<rect opacity="0.2" x="8" y="12" width="8" height="16" rx="2" fill="#4389EB"/>
<rect opacity="0.2" x="16" y="10" width="8" height="18" rx="2" fill="#4389EB"/>
<rect opacity="0.2" x="24" y="20" width="8" height="8" rx="2" fill="#4389EB"/>
<rect opacity="0.2" x="32" width="8" height="28" rx="2" fill="#4389EB"/>
<rect opacity="0.2" x="40" y="12" width="8" height="16" rx="2" fill="#4389EB"/>
<rect opacity="0.2" x="88" y="12" width="8" height="16" rx="2" fill="#4389EB"/>
<rect opacity="0.2" x="48" y="14" width="8" height="14" rx="2" fill="#4389EB"/>
<rect opacity="0.2" x="96" y="14" width="8" height="14" rx="2" fill="#4389EB"/>
<rect opacity="0.2" x="56" y="10" width="8" height="18" rx="2" fill="#4389EB"/>
<rect opacity="0.2" x="104" y="10" width="8" height="18" rx="2" fill="#4389EB"/>
<rect opacity="0.2" x="64" y="6" width="8" height="22" rx="2" fill="#4389EB"/>
<rect opacity="0.2" x="112" y="6" width="8" height="22" rx="2" fill="#4389EB"/>
<rect opacity="0.2" x="72" y="10" width="8" height="18" rx="2" fill="#4389EB"/>
<rect opacity="0.2" x="120" y="10" width="8" height="18" rx="2" fill="#4389EB"/>
<rect opacity="0.2" x="80" width="8" height="28" rx="2" fill="#4389EB"/>
</svg>
