<svg width="14" height="14" viewBox="0 0 14 14" fill="none" xmlns="http://www.w3.org/2000/svg">
<path d="M1.21049 8.18737L1.69727 8.07318L1.21049 8.18737ZM1.21049 4.54933L1.69727 4.66352L1.21049 4.54933ZM11.5262 4.54934L12.013 4.43515L11.5262 4.54934ZM11.5262 8.18737L12.013 8.30155L11.5262 8.18737ZM8.18737 11.5262L8.07318 11.0394L8.18737 11.5262ZM4.54934 11.5262L4.43515 12.013L4.54934 11.5262ZM4.54933 1.21049L4.43515 0.723698L4.54933 1.21049ZM8.18737 1.21048L8.30155 0.723698L8.18737 1.21048ZM12.6464 13.3536C12.8417 13.5488 13.1583 13.5488 13.3536 13.3536C13.5488 13.1583 13.5488 12.8417 13.3536 12.6464L12.6464 13.3536ZM1.69727 8.07318C1.43424 6.95185 1.43424 5.78485 1.69727 4.66352L0.723698 4.43515C0.425434 5.70669 0.425434 7.03001 0.723698 8.30155L1.69727 8.07318ZM11.0394 4.66352C11.3025 5.78486 11.3025 6.95185 11.0394 8.07318L12.013 8.30155C12.3113 7.03001 12.3113 5.70669 12.013 4.43515L11.0394 4.66352ZM8.07318 11.0394C6.95185 11.3025 5.78486 11.3025 4.66352 11.0394L4.43515 12.013C5.70669 12.3113 7.03001 12.3113 8.30155 12.013L8.07318 11.0394ZM4.66352 1.69727C5.78485 1.43424 6.95185 1.43424 8.07318 1.69727L8.30155 0.723698C7.03001 0.425434 5.70669 0.425434 4.43515 0.723698L4.66352 1.69727ZM4.66352 11.0394C3.19171 10.6942 2.04251 9.54499 1.69727 8.07318L0.723698 8.30155C1.15567 10.1431 2.59358 11.581 4.43515 12.013L4.66352 11.0394ZM8.30155 12.013C10.1431 11.581 11.581 10.1431 12.013 8.30155L11.0394 8.07318C10.6942 9.54499 9.54499 10.6942 8.07318 11.0394L8.30155 12.013ZM8.07318 1.69727C9.54499 2.04251 10.6942 3.19171 11.0394 4.66352L12.013 4.43515C11.581 2.59358 10.1431 1.15567 8.30155 0.723698L8.07318 1.69727ZM4.43515 0.723698C2.59358 1.15567 1.15567 2.59358 0.723698 4.43515L1.69727 4.66352C2.04251 3.19171 3.19171 2.04251 4.66352 1.69727L4.43515 0.723698ZM10.2032 10.9103L12.6464 13.3536L13.3536 12.6464L10.9103 10.2032L10.2032 10.9103Z" fill="#9C9EAD"/>
</svg>
