<svg width="24" height="24" viewBox="0 0 24 24" fill="none" xmlns="http://www.w3.org/2000/svg">
<path d="M17.7261 6.99524L17.2365 7.85309C16.7547 8.69728 16.7547 9.76504 17.2365 10.6092L17.7261 11.4671C18.472 12.7739 17.6066 14.4623 16.1909 14.4623H9.5M6 20L6 14.4623L6 4L16.1909 4" stroke="#4389EB" stroke-width="1.5" stroke-linecap="round" stroke-linejoin="round"/>
<path d="M6.06527 15.1263C6.45866 15.256 6.88269 15.0422 7.01236 14.6488C7.14204 14.2554 6.92825 13.8314 6.53486 13.7017L6.06527 15.1263ZM19.2413 2.53033C19.5342 2.23744 19.5342 1.76256 19.2413 1.46967C18.9484 1.17678 18.4736 1.17678 18.1807 1.46967L19.2413 2.53033ZM3.46967 16.1807C3.17678 16.4735 3.17678 16.9484 3.46967 17.2413C3.76256 17.5342 4.23743 17.5342 4.53033 17.2413L3.46967 16.1807ZM6.53486 13.7017L6.53256 13.7009L6.06297 15.1255L6.06527 15.1263L6.53486 13.7017ZM18.1807 1.46967L5.76744 13.8829L6.8281 14.9436L19.2413 2.53033L18.1807 1.46967ZM5.76744 13.8829L3.46967 16.1807L4.53033 17.2413L6.8281 14.9436L5.76744 13.8829Z" fill="#4389EB"/>
</svg>
