<svg width="20" height="18" viewBox="0 0 20 18" fill="none" xmlns="http://www.w3.org/2000/svg">
<path d="M1.9074 5.65134L1.26013 5.27246H1.26013L1.9074 5.65134ZM18.0926 5.65134L18.7399 5.27246V5.27246L18.0926 5.65134ZM18.0926 12.3487L17.4453 11.9698L18.0926 12.3487ZM1.9074 12.3487L2.55466 11.9698L1.9074 12.3487ZM2.55466 6.03021C5.89524 0.323262 14.1048 0.323262 17.4453 6.03021L18.7399 5.27246C14.82 -1.42415 5.18 -1.42415 1.26013 5.27246L2.55466 6.03021ZM17.4453 6.03021C18.5182 7.8631 18.5182 10.1369 17.4453 11.9698L18.7399 12.7275C20.0867 10.4266 20.0867 7.57338 18.7399 5.27246L17.4453 6.03021ZM17.4453 11.9698C14.1048 17.6767 5.89523 17.6767 2.55466 11.9698L1.26013 12.7275C5.18 19.4242 14.82 19.4242 18.7399 12.7275L17.4453 11.9698ZM2.55466 11.9698C1.48178 10.1369 1.48178 7.8631 2.55466 6.03021L1.26013 5.27246C-0.086711 7.57338 -0.0867115 10.4266 1.26013 12.7275L2.55466 11.9698ZM12.8067 9.0607C12.8067 10.6528 11.5387 11.9233 9.99944 11.9233V13.4233C12.3887 13.4233 14.3067 11.4595 14.3067 9.0607H12.8067ZM9.99944 11.9233C8.46049 11.9233 7.19331 10.6531 7.19331 9.0607H5.69331C5.69331 11.4592 7.60988 13.4233 9.99944 13.4233V11.9233ZM7.19331 9.0607C7.19331 7.46701 8.46065 6.19699 9.99944 6.19699V4.69699C7.60973 4.69699 5.69331 6.66125 5.69331 9.0607H7.19331ZM9.99944 6.19699C11.5385 6.19699 12.8067 7.46732 12.8067 9.0607H14.3067C14.3067 6.66094 12.3888 4.69699 9.99944 4.69699V6.19699Z" fill="white"/>
</svg>
