<svg width="18" height="18" viewBox="0 0 18 18" fill="none" xmlns="http://www.w3.org/2000/svg">
<path d="M2.51466 11.2872L1.78448 11.4585L2.51466 11.2872ZM2.51466 6.71282L1.78448 6.54155L2.51466 6.71282ZM15.4853 6.71283L14.7552 6.8841L15.4853 6.71283ZM15.4853 11.2872L14.7552 11.1159L15.4853 11.2872ZM11.2872 15.4853L11.1159 14.7552L11.2872 15.4853ZM6.71283 15.4853L6.8841 14.7552L6.71283 15.4853ZM6.71282 2.51466L6.8841 3.24484L6.71282 2.51466ZM11.2872 2.51466L11.1159 3.24484L11.2872 2.51466ZM6.01941 6.51916C5.72652 6.22627 5.25164 6.22627 4.95875 6.51916C4.66586 6.81205 4.66586 7.28693 4.95875 7.57982L6.01941 6.51916ZM6.26928 7.82969L5.73895 8.36002C6.03185 8.65292 6.50672 8.65292 6.79961 8.36002L6.26928 7.82969ZM8.36002 6.79961C8.65292 6.50672 8.65292 6.03185 8.36002 5.73895C8.06713 5.44606 7.59226 5.44606 7.29936 5.73895L8.36002 6.79961ZM9.7802 6.68959C9.36599 6.68959 9.0302 7.02538 9.0302 7.43959C9.0302 7.8538 9.36599 8.18959 9.7802 8.18959V6.68959ZM12.5109 8.18959C12.9251 8.18959 13.2609 7.8538 13.2609 7.43959C13.2609 7.02538 12.9251 6.68959 12.5109 6.68959V8.18959ZM6.01941 10.4202C5.72652 10.1273 5.25164 10.1273 4.95875 10.4202C4.66586 10.7131 4.66586 11.1879 4.95875 11.4808L6.01941 10.4202ZM6.26928 11.7307L5.73895 12.261C6.03185 12.5539 6.50672 12.5539 6.79961 12.261L6.26928 11.7307ZM8.36002 10.7006C8.65292 10.4077 8.65292 9.93287 8.36002 9.63998C8.06713 9.34708 7.59226 9.34708 7.29936 9.63998L8.36002 10.7006ZM9.7802 10.5906C9.36599 10.5906 9.0302 10.9264 9.0302 11.3406C9.0302 11.7548 9.36599 12.0906 9.7802 12.0906V10.5906ZM12.5109 12.0906C12.9251 12.0906 13.2609 11.7548 13.2609 11.3406C13.2609 10.9264 12.9251 10.5906 12.5109 10.5906V12.0906ZM3.24484 11.1159C2.91839 9.72419 2.91839 8.27581 3.24484 6.8841L1.78448 6.54155C1.40517 8.15857 1.40517 9.84143 1.78448 11.4585L3.24484 11.1159ZM14.7552 6.8841C15.0816 8.27581 15.0816 9.72419 14.7552 11.1159L16.2155 11.4585C16.5948 9.84143 16.5948 8.15857 16.2155 6.54155L14.7552 6.8841ZM11.1159 14.7552C9.72419 15.0816 8.27581 15.0816 6.8841 14.7552L6.54155 16.2155C8.15857 16.5948 9.84143 16.5948 11.4585 16.2155L11.1159 14.7552ZM6.8841 3.24484C8.27581 2.91839 9.72419 2.91839 11.1159 3.24484L11.4585 1.78448C9.84143 1.40517 8.15857 1.40517 6.54155 1.78448L6.8841 3.24484ZM6.8841 14.7552C5.07835 14.3316 3.66841 12.9217 3.24484 11.1159L1.78448 11.4585C2.33815 13.8188 4.18116 15.6619 6.54155 16.2155L6.8841 14.7552ZM11.4585 16.2155C13.8188 15.6619 15.6619 13.8188 16.2155 11.4585L14.7552 11.1159C14.3316 12.9216 12.9216 14.3316 11.1159 14.7552L11.4585 16.2155ZM11.1159 3.24484C12.9216 3.66841 14.3316 5.07835 14.7552 6.8841L16.2155 6.54155C15.6619 4.18116 13.8188 2.33815 11.4585 1.78448L11.1159 3.24484ZM6.54155 1.78448C4.18116 2.33815 2.33815 4.18116 1.78448 6.54155L3.24484 6.8841C3.66841 5.07835 5.07835 3.66841 6.8841 3.24484L6.54155 1.78448ZM4.95875 7.57982L5.73895 8.36002L6.79961 7.29936L6.01941 6.51916L4.95875 7.57982ZM6.79961 8.36002L8.36002 6.79961L7.29936 5.73895L5.73895 7.29936L6.79961 8.36002ZM9.7802 8.18959H12.5109V6.68959H9.7802V8.18959ZM4.95875 11.4808L5.73895 12.261L6.79961 11.2004L6.01941 10.4202L4.95875 11.4808ZM6.79961 12.261L8.36002 10.7006L7.29936 9.63998L5.73895 11.2004L6.79961 12.261ZM9.7802 12.0906H12.5109V10.5906H9.7802V12.0906Z" fill="white"/>
</svg>
